<svg xmlns="http://www.w3.org/2000/svg" viewBox="0 0 16 16">
  <defs>
    <style>.canvas{fill: none; opacity: 0;}.light-green{fill: #1f801f; opacity: 1;}</style>
  </defs>
  <title>IconLightCSFileNode</title>
  <g id="canvas" class="canvas">
    <path class="canvas" d="M16,16H0V0H16Z" />
  </g>
  <g id="level-1">
    <path class="light-green" d="M13.965,6V8h1V9h-1v1h-1V9h-2v1h-1V9h-1V8h1V6h-1V5h1V4h1V5h2V4h1V5h1V6Zm-1,0h-2V8h2Z" />
    <path class="light-green" d="M6.9,11.509a4.668,4.668,0,0,1-2.165.451A3.54,3.54,0,0,1,2.045,10.9a3.853,3.853,0,0,1-1.01-2.777A4.043,4.043,0,0,1,2.171,5.139,3.884,3.884,0,0,1,5.042,4,4.692,4.692,0,0,1,6.9,4.317V5.584a3.3,3.3,0,0,0-1.719-.461,2.7,2.7,0,0,0-2.028.8,2.942,2.942,0,0,0-.776,2.138A2.8,2.8,0,0,0,3.1,10.088,2.523,2.523,0,0,0,5,10.843,3.414,3.414,0,0,0,6.9,10.327Z" />
  </g>
</svg>
