<svg xmlns="http://www.w3.org/2000/svg" viewBox="0 0 16 16">
  <defs>
    <style>.canvas{fill: none; opacity: 0;}.light-defaultgrey-10{fill: #212121; opacity: 0.1;}.light-defaultgrey{fill: #212121; opacity: 1;}.light-shadow{fill: #000000; opacity: 0.1;}.cls-1{opacity:0.75;}</style>
  </defs>
  <title>IconLightJsonFile</title>
  <g id="canvas" class="canvas">
    <path class="canvas" d="M16,16H0V0H16Z" />
  </g>
  <g id="level-3">
    <g class="cls-1">
      <path class="light-defaultgrey-10" d="M13.5,4.5v10H2.5V1.5h8Z" />
      <path class="light-defaultgrey" d="M13.854,4.146l-3-3L10.5,1h-8L2,1.5v13l.5.5h11l.5-.5V4.5ZM3,14V2h7V5h3v9Z" />
    </g>
  </g>
  <g id="level-1">
    <path class="light-shadow" d="M5.417,7.331A1.937,1.937,0,0,1,6.682,7v.743q-.638,0-.637.692v.847q0,.956-.612,1.206V10.5q.612.247.612,1.221v.815a.817.817,0,0,0,.149.553.634.634,0,0,0,.488.163V14a2,2,0,0,1-1.262-.319,1.392,1.392,0,0,1-.393-1.133v-.955q0-.732-.6-.732v-.732q.6,0,.6-.759V8.483A1.447,1.447,0,0,1,5.417,7.331Zm5.638,2.047V8.467a1.424,1.424,0,0,0-.389-1.136A1.923,1.923,0,0,0,9.409,7v.743q.636,0,.636.692v.816q0,.995.609,1.244v.016q-.609.239-.609,1.189v.848a.787.787,0,0,1-.151.546.634.634,0,0,1-.485.161V14a1.981,1.981,0,0,0,1.259-.319,1.436,1.436,0,0,0,.387-1.157v-.919c0-.5.2-.744.609-.744v-.732C11.259,10.129,11.055,9.879,11.055,9.378Z" />
    <path class="light-defaultgrey" d="M5.417,6.331A1.936,1.936,0,0,1,6.682,6v.744q-.638,0-.637.692v.847q0,.954-.612,1.206V9.5q.612.247.612,1.221v.815a.817.817,0,0,0,.149.553.634.634,0,0,0,.488.163V13a2.011,2.011,0,0,1-1.262-.318,1.393,1.393,0,0,1-.393-1.134v-.955q0-.731-.6-.731V9.129q.6,0,.6-.759V7.483A1.447,1.447,0,0,1,5.417,6.331Zm5.638,2.047V7.466a1.423,1.423,0,0,0-.389-1.135A1.922,1.922,0,0,0,9.409,6v.744q.636,0,.636.692V8.25q0,.995.609,1.245v.016q-.609.239-.609,1.189v.847a.794.794,0,0,1-.15.547.638.638,0,0,1-.486.161V13a1.987,1.987,0,0,0,1.259-.318,1.436,1.436,0,0,0,.387-1.157V10.6c0-.495.2-.743.609-.743V9.129C11.259,9.129,11.055,8.879,11.055,8.378Z" />
  </g>
</svg>
