<svg xmlns="http://www.w3.org/2000/svg" viewBox="0 0 16 16">
  <defs>
    <style>.canvas{fill: none; opacity: 0;}.light-blue{fill: #005dba; opacity: 1;}</style>
  </defs>
  <title>IconLightVBFileNode</title>
  <g id="canvas" class="canvas">
    <path class="canvas" d="M16,16H0V0H16Z" />
  </g>
  <g id="level-1">
    <path class="light-blue" d="M8.351,4,5.478,12H3.994L1.172,4h1.45L4.6,10.07a3.709,3.709,0,0,1,.145.675h.022a3.531,3.531,0,0,1,.162-.686L6.946,4Zm1.06,8V4H11.95a3,3,0,0,1,1.838.508,1.577,1.577,0,0,1,.678,1.322,1.887,1.887,0,0,1-.385,1.183,2.087,2.087,0,0,1-1.066.714v.022a2.082,2.082,0,0,1,1.319.611A1.857,1.857,0,0,1,14.828,9.7a2.014,2.014,0,0,1-.808,1.662A3.2,3.2,0,0,1,11.978,12Zm1.323-6.934V7.342h.859a1.655,1.655,0,0,0,1.085-.326,1.135,1.135,0,0,0,.393-.924q0-1.026-1.372-1.026Zm0,3.341V10.94h1.132a1.728,1.728,0,0,0,1.147-.343,1.176,1.176,0,0,0,.4-.946q0-1.244-1.724-1.244Z" />
  </g>
</svg>
